<svg width="15" height="15" viewBox="0 0 15 15" fill="none" xmlns="http://www.w3.org/2000/svg">
<path d="M15 15H0V1.875C0 1.37772 0.197544 0.900805 0.549175 0.549175C0.900805 0.197544 1.37772 0 1.875 0L13.125 0C13.6223 0 14.0992 0.197544 14.4508 0.549175C14.8025 0.900805 15 1.37772 15 1.875V15ZM1.25 13.75H13.75V1.875C13.75 1.70924 13.6842 1.55027 13.5669 1.43306C13.4497 1.31585 13.2908 1.25 13.125 1.25H1.875C1.70924 1.25 1.55027 1.31585 1.43306 1.43306C1.31585 1.55027 1.25 1.70924 1.25 1.875V13.75Z" fill="#86BBD8"/>
<path d="M5.83323 11.1995C5.66901 11.2 5.50634 11.1678 5.35463 11.105C5.20293 11.0421 5.06521 10.9497 4.94948 10.8332L2.05823 7.94198L2.94198 7.05823L5.83323 9.94947L12.0582 3.72511L12.942 4.60885L6.7176 10.8332C6.60175 10.9497 6.46393 11.0421 6.31212 11.105C6.16031 11.1678 5.99754 11.2 5.83323 11.1995Z" fill="#86BBD8"/>
</svg>
