<svg width="15" height="15" viewBox="0 0 15 15" fill="none" xmlns="http://www.w3.org/2000/svg">
<g clip-path="url(#clip0_58:833)">
<path d="M4.12496 13.8261L2.92308 13.4511L3.43746 11.8536C3.54327 11.8662 3.64966 11.8733 3.75621 11.8749C4.43194 11.8732 5.08892 11.6526 5.62867 11.246C6.16841 10.8395 6.56184 10.2689 6.74996 9.61988L7.49996 7.39738L8.23933 9.58488C8.42468 10.3004 8.8632 10.9244 9.47358 11.3413C10.084 11.7581 10.8248 11.9395 11.5587 11.8518L12.0587 13.4493L10.8525 13.8243L11.2237 15.018L14.8356 13.893L14.465 12.6993L13.2531 13.0743L12.7531 11.4743C13.3773 11.1361 13.8668 10.5942 14.1398 9.93882C14.4127 9.28346 14.4527 8.5543 14.2531 7.87301L13.0981 4.45738C12.9531 3.99023 12.6326 3.5975 12.204 3.36181C11.7754 3.12612 11.2721 3.06584 10.8 3.19363L8.39246 3.86488C8.0472 3.96095 7.73719 4.15503 7.49996 4.42363C7.26272 4.15503 6.95271 3.96095 6.60746 3.86488L4.19933 3.19363C3.73063 3.06435 3.23006 3.12167 2.80272 3.35358C2.37538 3.58549 2.0545 3.97394 1.90746 4.43738L0.740582 7.91051C0.549511 8.58704 0.593869 9.30841 0.866388 9.95644C1.13891 10.6045 1.62343 11.1407 2.24058 11.4774L1.72996 13.0824L0.513082 12.7074L0.143707 13.898L3.75683 15.023L4.12496 13.8261ZM12.8793 9.67051C12.7584 9.88498 12.5963 10.0735 12.4025 10.2254C12.2086 10.3772 11.9868 10.4894 11.7496 10.5555C11.5124 10.6216 11.2645 10.6403 11.0201 10.6106C10.7756 10.5809 10.5394 10.5034 10.325 10.3824C10.106 10.2581 9.91402 10.0913 9.76042 9.89178C9.60683 9.69224 9.49469 9.46402 9.43058 9.22051L8.85246 7.49988H12.8043L13.0543 8.24613C13.1212 8.48316 13.1404 8.73111 13.1108 8.97561C13.0812 9.2201 13.0034 9.4563 12.8818 9.67051H12.8793ZM8.34808 5.36988C8.38785 5.29665 8.44201 5.23221 8.50731 5.18044C8.57261 5.12867 8.64771 5.09064 8.72808 5.06863L11.135 4.39801C11.1887 4.38297 11.2442 4.37519 11.3 4.37488C11.4374 4.37634 11.5707 4.42205 11.6802 4.50525C11.7896 4.58845 11.8693 4.7047 11.9075 4.83676L12.3831 6.24988H8.43121L8.29683 5.85176C8.27287 5.77207 8.26505 5.6884 8.27386 5.60565C8.28266 5.52291 8.30789 5.44275 8.34808 5.36988ZM3.69871 4.37488C3.75467 4.37499 3.81037 4.38255 3.86433 4.39738L6.27183 5.06863C6.43088 5.1125 6.56613 5.21748 6.64809 5.36067C6.73005 5.50386 6.75206 5.67365 6.70933 5.83301L6.56871 6.24988H2.61683L3.09808 4.81863C3.1378 4.69029 3.2175 4.57801 3.32556 4.49817C3.43361 4.41834 3.56436 4.37514 3.69871 4.37488ZM1.93746 8.27801L2.19621 7.49988H6.14746L5.55746 9.24988C5.45763 9.60664 5.25435 9.92583 4.97329 10.1672C4.69222 10.4085 4.34597 10.5612 3.97822 10.6059C3.61047 10.6506 3.23771 10.5854 2.90699 10.4185C2.57626 10.2516 2.3024 9.99043 2.11996 9.66801C1.87841 9.2468 1.81283 8.74729 1.93746 8.27801Z" fill="#86BBD8"/>
<path d="M10.1832 0.183066L8.75308 1.61319L9.63697 2.49707L11.0671 1.06695L10.1832 0.183066Z" fill="#86BBD8"/>
<path d="M4.81673 0.183286L3.93285 1.06717L5.33911 2.47343L6.22299 1.58954L4.81673 0.183286Z" fill="#86BBD8"/>
<path d="M8.12511 0H6.87511V1.875H8.12511V0Z" fill="#86BBD8"/>
</g>
<defs>
<clipPath id="clip0_58:833">
<rect width="15" height="15" fill="white"/>
</clipPath>
</defs>
</svg>
