<?xml version="1.0" standalone="no"?>
<!DOCTYPE svg PUBLIC "-//W3C//DTD SVG 1.1//EN" "http://www.w3.org/Graphics/SVG/1.1/DTD/svg11.dtd">
<svg xmlns="http://www.w3.org/2000/svg" xmlns:xlink="http://www.w3.org/1999/xlink" version="1.1" id="Layer_1" x="0px" y="0px" viewBox="0 0 992.1 283.5" style="enable-background:new 0 0 992.1 283.5;" xml:space="preserve" width="992.0999755859375" height="283.5">
<g>
	<path d="M395.8,107.9c-3.1,6.7-5.6,13.6-8.2,20.4c-2.7,6.9-5.3,13.8-7.9,20.7c-2.6,6.8-5.2,13.6-7.8,20.4   c-2.6,6.9-5.3,13.8-7.9,20.7c-2.6,6.9-5.3,13.8-7.9,20.5c-2.9,0.5-8.5,0.5-11.8,0c-3.6-8.5-6.9-17.3-10.4-26   c-3.5-8.8-7-17.7-10.5-26.5c-3.5-8.7-6.9-17.5-10.4-26.2c-3.4-8.7-6.8-17.4-10.4-26.2c-0.4,0.5-0.6,0.7-0.6,0.9   c0,30.4,0,60.9,0,91.6c0.8,0.5,1.6,1,2.5,1.4c4,1.8,8.2,2.8,12.6,3.4c1.2,0.2,2.4,0.2,3.7,0.8c-0.1,1.1-0.2,2.2-0.3,3.3   c-0.1,1.1-0.2,2.2-0.3,3.2c-1.3,0.8-2.5,0.5-3.7,0.5c-13.9,0-27.8,0-41.6,0c-0.9,0-1.8,0-2.7,0c-0.4,0-0.8-0.2-1.3-0.3   c-0.3-2.4,0.3-4.5,0.7-6.8c1.2-0.6,2.4-0.6,3.6-0.8c3.6-0.5,7-1.4,10.3-2.8c1.2-0.5,2.4-1.2,3.2-1.6c0.3-0.5,0.4-0.6,0.4-0.7   c0-0.1,0.1-0.2,0.1-0.3c0-34.4,0.1-68.7,0.1-103.1c0-0.4,0-0.9-0.1-1.3c0-0.2-0.2-0.4-0.3-0.8c-5.4-3.1-11.6-4.1-17.9-5.2   c-0.6-2.4-0.2-4.6,0.5-6.8c2.7-0.4,30.4-0.6,37.3-0.2c1.1,0.7,1.3,2,1.7,3.1c6.7,16.1,13.3,32.2,19.9,48.4c7,17.1,14,34.1,21,51.2   c0.4,1,0.9,2,1.6,3.4c14.2-35.7,28.2-70.9,42.1-106c3.4-0.4,34.4-0.4,37.2,0c0.4,1,0.1,2.1,0,3.2c-0.2,1.1-0.4,2.2-0.6,3.5   c-6.1,1.2-12.3,2.1-17.8,5.5c0,35.2,0,70.3,0,105.7c1.3,0.6,2.7,1.4,4.1,1.9c3.6,1.4,7.3,2.2,11,2.8c1.1,0.2,2.2,0.4,3.3,0.6   c0.4,2.5,0,4.8-0.6,7c-3.1,0.5-32.2,0.7-51.7,0.3c-0.8,0-1.5-0.2-2.3-0.2c-0.1-0.5-0.2-0.8-0.2-1.1c0.2-1.9,0.5-3.7,0.8-5.6   c1.2-0.7,2.4-0.7,3.6-0.9c4.2-0.6,8.3-1.6,12.2-3.6c0.7-0.4,1.3-0.8,1.9-1.2C396.5,195.5,396.5,111.1,395.8,107.9z"/>
	<path d="M630,198.6c3.9,3.1,8.5,4.2,13.3,5.4c0.1,0.7,0.2,1.4,0.2,2.2c-0.1,1.4-0.4,2.9-0.6,4.4c-0.6,0.1-1.1,0.3-1.6,0.3   c-13.3,0-26.6,0-40,0c-0.4,0-0.9-0.1-1.5-0.2c-0.3-2.3,0.3-4.5,0.4-6.5c0.9-1.1,2.1-1,3.2-1.2c3.6-0.7,6.9-1.8,9.7-4.5   c0-0.8,0.1-1.7,0.1-2.6c0-31.8,0-63.6,0-95.4c0-1.8-0.2-3.6-0.5-5.3c-0.6-3.8-2.7-6.3-6.5-7.3c-1-0.3-2-0.5-2.9-0.7   c-1.2-0.2-2.4-0.5-3.8-0.7c0.2-1.9,0.4-3.6,0.5-5.5c0.7-0.2,1.4-0.4,2-0.5c7.1-1.3,13.9-3.3,20.8-5.3c0.1,0,0.2-0.1,0.3-0.1   c2.6-1.3,4.7-0.6,6.9,1.5c0,4.3,0,8.8,0,13.2c0,4.4,0,8.7,0,13.1c0,4.5,0,9,0,13.4c0,4.3-0.1,8.7,0.1,13c1.2,0.2,1.5-0.6,2-1.1   c2.7-2.8,5.7-5.1,9-7c4.5-2.5,9.3-3.8,14.4-3.7c4.7,0.1,9.4,0.5,13.8,2.3c9.8,3.9,15.1,11.2,15.9,21.7c0.1,1.8,0.1,3.6,0.1,5.4   c0,16,0,32,0,48c0,1.2,0,2.4,0,3.5c2,2.1,4.3,2.9,6.6,3.7c2.2,0.8,4.5,1.4,6.8,2.1c0.2,2.1-0.1,4.2-0.6,6.4c-0.7,0.1-1.3,0.3-2,0.3   c-12.9,0-25.8,0-38.6,0c-0.8,0-1.5-0.2-2.3-0.3c-0.4-2.2,0.4-4.1,0.3-6.3c1-0.3,1.8-0.6,2.6-0.8c4.3-1.1,7.3-2.6,10.2-5.2   c0-0.8,0-1.8,0-2.8c0-16.2,0-32.5,0-48.7c0-2.7-0.1-5.4-0.7-8c-1.6-6.9-6-10.9-13-11.7c-4.2-0.5-8.3,0.2-12,2.2   c-5.3,2.8-9.2,7-12,12.3c-0.5,1-0.8,2.1-0.8,3.2c0,0.7,0,1.3,0,2c0,16,0,32,0,48C630,196.1,630,197.4,630,198.6z"/>
	<path d="M706.6,169.9c3.2-0.4,6-0.7,8.9-1c1,1,0.9,2.3,1.1,3.5c0.5,3.1,0.9,6.2,1.5,9.3c0.9,5,2.4,9.8,4.3,14.4   c0.5,1.2,1.2,2,2.5,2.5c8.7,3.3,17.7,4.6,27,3.1c1.2-0.2,2.4-0.5,3.6-0.9c8.7-3.3,13.6-9.5,14.3-18.8c0.2-2.1,0.1-4.3-0.2-6.4   c-0.5-4.1-2.3-7.7-5-10.8c-2.4-2.8-5-5.1-8.3-6.8c-4.6-2.3-9.2-4.6-13.9-6.7c-5.3-2.4-10.6-4.8-15.7-7.6c-3.3-1.9-6.4-4.1-9.1-6.8   c-6.2-6.2-9.2-13.6-9.5-22.3c-0.1-3.4,0.2-6.7,0.9-10c2.8-12.2,10.7-19.9,22.3-23.8c6.3-2.1,12.9-2.7,19.6-2.4   c6,0.2,11.8,1.5,17.3,3.8c4.1,1.8,7.9,4.1,11.2,7.3c4.9,4.9,6.8,10.7,5.8,17.4c-0.2,1.1-0.4,2.2-0.8,3.2c-1.4,3.5-3.9,5.4-7.6,5.5   c-1.1,0-2.2,0-3.4,0c-3.9-0.2-6.8-2-9-5.3c0.4-0.6,0.9-1.3,1.3-1.9c1.3-1.8,2-3.7,2.4-5.8c0.7-3.9-0.5-7-3.5-9.6   c-2.8-2.4-6.2-3.6-9.8-4.1c-5.1-0.8-10.3-0.7-15.3,0.5c-2.3,0.6-4.5,1.5-6.4,2.8c-4.5,2.9-7,7.1-7.7,12.4c-0.4,3.4-0.3,6.7,0.7,10   c0.7,2.2,1.7,4.1,3.2,5.9c2.8,3.3,6,6,9.9,7.9c3.8,1.9,7.6,3.7,11.5,5.4c6,2.7,12.1,5.4,17.8,8.6c4.6,2.6,8.6,5.9,12,10.1   c4.8,6,7,12.9,7.3,20.5c0.3,5.1-0.3,10.1-1.9,14.9c-2,6-5.5,11-10.5,14.8c-5.6,4.3-12,6.9-18.9,8.3c-14,2.8-27.6,1-40.8-4.3   c-2.7-1.1-5.3-2.4-7.9-3.7c-1-0.5-1.5-1.3-1.4-2.4c0-0.7,0-1.3,0-2c0-8.3,0-16.6,0-24.9C706.4,172.5,706.5,171.4,706.6,169.9z"/>
	<path d="M513.1,198.8c4.2,2.9,8.8,4.1,13.4,5.4c0.2,2.4,0,4.5-0.7,6.5c-2.6,0.4-23.2,0.4-26.6,0.1c-1.3-2.4-1.1-5.4-2.4-8.1   c-0.7,0.5-1.3,0.9-1.9,1.3c-6.7,5.6-14.6,8-23.2,8.3c-4.4,0.2-8.8-0.1-13-1.4c-8.6-2.7-13.8-8.4-14.9-17.5c-0.4-3.4-0.3-6.7,0.5-10   c1.2-5.6,4.2-10.1,8.7-13.6c4.8-3.7,10.3-5.8,16.1-7.1c5.9-1.3,12-1.5,18-2c2.7-0.2,5.4-0.4,8-0.7c0.3,0,0.6-0.2,1.1-0.4   c0.1-0.6,0.2-1.3,0.2-1.9c0-4.7,0.1-9.4,0-14.1c0-2.1-0.2-4.3-0.7-6.3c-1.7-7.9-5.9-10.4-11.9-11.4c-4.3-0.7-8.7-0.6-13,0.5   c-1.8,0.4-3.4,1.1-4.9,2.2c-4.1,3-4.1,8.4-0.1,11.4c0.8,0.6,1.7,1.1,2.5,1.6c0.4,4.4-1.9,7.8-6.3,8.9c-2.2,0.5-4.4,0.7-6.7,0.4   c-5.5-0.9-9-4.7-9.3-10.2c-0.3-6.2,1.9-11.4,6.7-15.4c3.6-3,7.7-4.9,12.2-6.1c3.5-0.9,7-1.4,10.6-1.5c5.7-0.2,11.4,0,17,1.5   c2.8,0.8,5.5,1.8,8.1,3.2c8,4.5,12,11.4,12.5,20.5c0.1,1.5,0,2.9,0,4.4c0,15.9,0,31.8,0,47.7C513.1,196,513.1,197.3,513.1,198.8z    M495.9,168.4c-0.3,0-0.6-0.1-1-0.1c-4.6,0.4-9.1,0.7-13.7,1.2c-3.5,0.3-6.9,1-10,2.5c-4,1.9-7.1,4.7-8.8,8.8   c-2.3,5.7-2,11.4,0.4,16.9c1.4,3.3,4.1,5.2,7.6,6c3.8,0.8,7.6,0.3,11.2-0.9c5.8-2,10.4-5.9,14.6-10c0-8.1,0-15.9,0-23.7   C496.2,168.8,496,168.7,495.9,168.4z"/>
	<path d="M880.6,164.7c-0.3,7.3-0.9,14.6-3.2,21.5c-0.5,1.5-1,3-1.6,4.4c-4.6,10.5-12.5,17.3-23.6,20.1c-9.3,2.3-18.6,2.2-27.9-0.3   c-9.6-2.6-16.6-8.5-21.2-17.3c-2.5-4.8-4-10-4.8-15.3c-1.3-8.7-1.3-17.4,0-26.1c0.8-5.2,2.3-10.3,4.7-15   c4.3-8.4,10.9-14.2,19.9-16.9c10.6-3.3,21.4-3.3,32.1,0c9.1,2.8,15.8,8.7,20.1,17.2c2.3,4.5,3.8,9.3,4.5,14.4   C879.9,155.8,880.2,160.3,880.6,164.7z M863.1,162.9c-0.3-3.4-0.6-8.6-1.3-13.8c-0.5-3.9-1.5-7.7-3.3-11.2   c-2.6-5.3-6.7-8.8-12.5-10.3c-4.4-1.1-8.9-1.2-13.3-0.3c-6.5,1.3-11.1,5.1-13.8,11.1c-0.6,1.3-1.1,2.7-1.5,4.1   c-1.3,4.1-1.8,8.3-2.2,12.5c-0.8,9.1-0.6,18.1,1,27.1c0.6,3.6,1.6,7.2,3.4,10.5c2.7,5.2,6.9,8.4,12.5,9.8c3.5,0.9,7.1,0.9,10.7,0.5   c7.4-0.9,13-4.8,15.9-11.7c1-2.5,1.8-5,2.5-7.6C862.8,177.3,862.8,171.1,863.1,162.9z"/>
	<path d="M958.5,194.4c1.9,2,3.6,3.7,5,6c-1.2,1.1-2.3,2.2-3.6,3.1c-10,7.8-21.4,10.9-34,9.4c-3.8-0.4-7.5-2.1-11.1-3.3   c-7.8-2.6-13.6-7.5-17.4-14.8c-2.8-5.3-4.3-11-5.2-16.9c-1-6.6-1.1-13.2-0.6-19.8c0.5-6.7,1.8-13.3,4.6-19.5   c5.3-11.6,14.4-17.2,26.9-19.4c6.7-1.2,13.4-1.2,20,0c5,0.9,9.7,2.8,13.7,6c4.4,3.6,6.9,8.2,6.8,13.9c0,3.2-1.1,5.9-3.2,8.3   c-4.6,5.3-13,4-16.4-1.5c-0.8-1.2-1-2.4-0.2-3.7c1.1-1.8,1.6-3.9,1.6-6.1c0-5.6-4.1-9.3-8.6-10.1c-4.6-0.8-9.2-0.4-13.5,1.5   c-4.1,1.7-7,3.8-8.8,7.8c-1.7,3.7-2.8,7.5-3.5,11.5c-1.7,9.4-1.7,18.9-1,28.4c0.3,3.7,0.6,7.4,1.6,10.9c0.3,1.2,0.7,2.4,1.1,3.5   c3.1,7.7,8.8,12.8,17.1,13.5c9.9,0.9,18.8-1.7,26.8-7.6C957.1,195.4,957.7,195,958.5,194.4z"/>
	<path d="M557.6,100.4c2.7-0.2,5.1-0.2,7.8,0c0.1,1,0.2,1.7,0.2,2.5c0,4.4,0,8.7,0,13.1c0,1,0.1,2,0.2,3.1c1.3,0.1,2.4,0.2,3.5,0.2   c8,0,13.6,0,17.8,0c1.1,0,2.2-0.3,3.4,0.5c0.1,0.6,0.2,1.2,0.2,1.9c0,2.6,0,5.1,0,7.4c-0.9,1-1.9,0.8-2.8,0.8c-6.2,0-12.3,0-18.5,0   c-1.1,0-2.2,0-3.5,0c-0.2,0.8-0.4,1.4-0.4,2c0,2.6,0,5.2,0,7.7c0,16.8,0,33.6,0,50.4c0,2.5,0.1,4.9,0.6,7.3   c0.8,3.3,2.6,5.2,6.1,5.8c4.1,0.7,8,0.3,11.9-1.1c1.8-0.6,3.5-1.5,5.4-2.3c1.3,1.9,2.5,3.7,3.7,5.4c-0.2,0.4-0.3,0.7-0.5,0.8   c-4.7,3.3-9.7,5.8-15.6,6.5c-5.4,0.6-10.7,0.5-16-0.7c-5.9-1.3-9.6-5-11.2-10.8c-1.2-4.3-1.4-8.6-1.5-13c-0.1-7.9,0-15.9,0-23.8   c0-10.1,0-20.2,0-30.2c0-1.2,0.2-2.5-0.4-3.8c-2.5-0.6-5-0.2-7.6-0.3c-2.4-0.1-4.9-0.1-7.2-0.1c-0.9-1.1-0.6-2.1-0.6-3.1   c0-0.9,0.1-1.8,0.1-2.8C544.6,119.7,553.4,112.3,557.6,100.4z"/>
	<path d="M213.5,121.3c0.6-0.8,1.2-1.5,1.7-2.2c6.3-7.3,10.2-15.7,11.5-25.3c0.4-3,0.1-6.1-0.7-9c-2.1-7.3-7.3-11.2-14.5-12.9   c-5.7-1.3-11.3-0.8-16.9,1c-5.1,1.6-9.7,4-14.2,6.8c-8.8,5.6-16.6,12.6-23.8,20.1c-3.4,3.6-6.5,7.4-9.9,11c-1.9,2.1-3.9,4.1-6,5.9   c-1.2,1-2.6,1.7-4,2.4c-1.6,0.8-3.1,0.3-4.3-0.9c-0.9-0.9-1.7-1.8-2.2-2.9c-4.2-8.1-7.4-16.5-9.3-25.5c-0.1-0.5,0.1-1,0.1-1.8   c0.7,0.4,1.1,0.5,1.4,0.8c1,1.2,2.1,2.3,3,3.6c1.8,2.8,3.5,5.7,5.3,8.6c1,1.5,2,3,3.3,4.2c2.2,2.1,4.2,2,6.6,0.1   c0.8-0.6,1.4-1.4,2.1-2.2c9.9-11.6,21.2-21.5,34.3-29.4c5.8-3.5,11.8-6.3,18.4-8c9-2.4,17.6-0.9,25.6,3.5   c8.2,4.5,12.3,11.8,12.6,21.2c0.1,5.9-1,11.6-3.3,17c-1.5,3.6-3.5,6.8-6.5,9.3c-2.7,2.3-5.9,3.6-9.1,4.9   C214.4,121.6,214.1,121.4,213.5,121.3z"/>
	<path d="M173.5,95.7c0.1,0.8,0.3,1.4,0.1,1.8c-0.6,2.5-1.2,5-2,7.4c-0.8,2.3-1.8,4.6-2.6,6.9c-0.5,1.5-1,3-1.1,4.5   c-0.3,2.8,1.3,4.7,4.1,5.2c0.5,0.1,1.1,0.1,1.7,0.1c7,0.1,13.8,0.9,20.7,2c10.8,1.8,21.4,4.6,31.4,9.3c3.9,1.8,7.5,3.9,11,6.5   c7.4,5.4,11.9,12.9,13.4,21.7c1.7,9.5-1.1,17.7-8.9,23.9c-5.7,4.5-12.1,7.6-19.4,8.7c-3.6,0.6-7.2,0.2-10.5-1.2   c-2.3-0.9-4.5-1.9-6.4-3.4c0.3-1.2,1.1-0.8,1.7-0.8c7.5,0.7,14.7-0.8,21.6-3.6c2.3-0.9,4.5-2.1,6.5-3.4c1.7-1.1,3.2-2.4,4.6-3.8   c5.1-5.4,6.4-11.6,3.9-18.6c-2-5.7-5.5-10.2-10.3-13.8c-5.1-3.9-10.9-6.6-17-8.6c-7-2.4-14.2-3.8-21.6-4.9   c-7.8-1.1-15.6-1.4-23.4-1.9c-2.6-0.2-5.1-0.4-7.7-0.9c-1.6-0.3-3.2-1-4.7-1.7c-1.8-0.9-2.4-2.6-2-4.6c0.2-1.2,0.6-2.4,1.1-3.5   c3.6-7.7,7.9-15.1,13.3-21.7c0.4-0.4,0.7-0.8,1.2-1.2C172.5,96.1,172.8,96,173.5,95.7z"/>
	<path d="M99.5,79.3c-1.4-0.6-2.1-0.9-2.7-1.3c-6.7-3.8-13.9-5.5-21.5-6c-4-0.3-8,0.3-11.9,1.7c-7.3,2.7-11.4,8-12,15.8   c-0.5,6.1,0.9,11.8,3.7,17.1c3.3,6.2,7.9,11.4,13,16.1c8.3,7.6,17.6,13.8,27.4,19.3c3.1,1.7,6.3,3.3,9.4,5.2c2.4,1.4,4.8,3,6.9,4.8   c3.7,3.3,3.8,6,0,9.2c-6.9,6-14.4,11-22.7,14.8c-0.3,0.1-0.6,0.3-0.9,0.3c-0.2,0-0.4,0-0.7,0c-0.5-0.4-0.4-1,0-1.5   c1-1.3,2-2.7,3.1-3.9c2.2-2.3,4.5-4.4,6.7-6.6c1.2-1.2,2.4-2.4,3.3-3.8c1.9-2.9,1.4-5.3-1.4-7.2c-0.8-0.6-1.7-1-2.6-1.5   c-13.5-7.1-25.7-15.9-36.1-27c-2.8-3-5.4-6.3-7.8-9.6c-1.8-2.4-3.2-5.1-4.5-7.8c-3.8-8-4.1-16.3-1.5-24.5   c2.8-8.8,8.8-14.4,17.8-16.5c6.9-1.7,13.7-1.8,20.6,0.2c4.5,1.3,8.4,3.6,11.2,7.5C97.2,75.6,98.5,76.9,99.5,79.3z"/>
	<path d="M200,140.9c-1.4,1.9-2.9,2.5-4.3,3c-3.1,1.2-6.3,2.2-9.5,3.3c-1.4,0.5-2.8,0.9-4.1,1.5c-1.1,0.5-2.1,1.3-3,2.1   c-1.2,1.2-1.6,2.7-0.8,4.3c0.6,1.3,1.4,2.5,2.3,3.7c8.8,11.9,15.8,24.7,20.5,38.7c2.1,6.3,3.6,12.7,4,19.3   c0.6,10.3-2.9,19.1-9.9,26.6c-4.5,4.8-10.4,6.9-16.8,7.3c-2.1,0.1-4.2-0.4-6.3-0.8c-6.3-1.5-12.1-4.1-17.1-8.2   c-4-3.3-6.8-7.4-7.8-12.6c-0.3-1.6-0.6-3.3-0.9-4.9c1.3-0.5,1.5,0.5,1.9,1c3.3,4.9,7.6,8.8,12.4,12.1c4.4,3,9.1,5.3,14.4,6.2   c7.7,1.4,14.6-1.5,18.8-8.1c2.5-3.9,4-8.2,4.4-12.9c0.6-6.6-0.5-12.9-2.5-19.2c-2.5-7.8-6-15.2-10.1-22.2   c-3.6-6.2-7.6-12.1-11.9-17.9c-1.9-2.6-3.7-5.3-5.4-8.1c-0.9-1.5-1.6-3.2-2-4.9c-0.7-2.4,0.1-4.2,2.3-5.4c1.2-0.6,2.5-1.1,3.8-1.4   c8.1-1.9,16.3-3.2,24.6-3C197.7,140.5,198.6,140.7,200,140.9z"/>
	<path d="M83.3,124.1c2.1-0.9,2.6-1.1,5.1-0.8c3.7,0.4,7.3,1,11,1.3c1.7,0.2,3.4,0.3,5,0c3-0.5,4.4-2.5,4.1-5.5   c-0.1-1.1-0.4-2.2-0.6-3.3c-0.6-4.3-1.3-8.6-1.9-12.9c-0.8-6.3-0.8-12.7-0.6-19.1c0.2-8.8,1.3-17.4,4-25.8c0.5-1.6,1.1-3.2,1.7-4.7   c3.2-8.1,9-13.8,16.5-17.8c6.3-3.4,13-4.1,19.8-1.7c2,0.7,3.9,1.6,5.7,2.8c5.9,4.1,10.5,9.4,13.6,15.9c1.6,3.3,2.6,6.7,2.5,10.3   c-0.1,3.1-1.1,7.3-2.6,9.8c-0.3-0.6-0.6-1-0.7-1.5c-0.9-6.9-3.6-13.1-7.3-19c-2.1-3.3-4.6-6.3-7.7-8.8c-4.4-3.5-9.3-5.3-15-4.4   c-3.2,0.5-5.9,1.9-8.5,3.8c-4.1,3.1-7.2,7-9.4,11.6c-2.6,5.5-3.9,11.4-4.7,17.4c-1.2,9.8-0.8,19.7,0.5,29.5   c0.9,6.5,2.1,13,3.1,19.5c0.3,2.1,0.4,4.2,0.5,6.3c0,0.7,0,1.3-0.1,2c-0.5,3.7-2.5,5.4-6.1,5c-1-0.1-2-0.3-3-0.5   c-7.8-1.8-15.3-4.1-22.5-7.6C84.4,125.5,84.4,125.5,83.3,124.1z"/>
	<path d="M180.6,190.1c-1.8,0-3.2-0.8-4.5-1.6c-2.5-1.5-4.9-3-7.4-4.6c-1.1-0.7-2.2-1.5-3.4-2.2c-1-0.6-2-1.1-3-1.5   c-3.1-1-5.3,0-6.5,3c-0.3,0.8-0.5,1.7-0.7,2.6c-3.9,14.9-9.9,29-18.4,41.8c-3.4,5.1-7.3,9.9-12,14c-6.7,6.1-14.8,8.8-23.7,8.8   c-10.2-0.1-17.8-4.8-22.3-13.9c-3.2-6.3-4.7-13-4.3-20.1c0.2-4.5,1.6-8.6,4.5-12c1.2-1.4,2.2-3.1,3.7-4.1c0.9,0.4,0.7,1.1,0.5,1.5   c-2,5.8-2.2,11.8-1.9,17.9c0.2,4.2,1.1,8.2,2.7,12.1c1,2.5,2.4,4.8,4.2,6.8c4.2,4.7,9.5,6.5,15.7,5.7c5.7-0.7,10.7-3,15.2-6.6   c3.5-2.8,6.5-6.2,9.1-9.8c5.2-7.1,9-14.9,12.2-23.1c3-7.6,5.3-15.4,7.5-23.3c0.8-2.8,1.7-5.6,2.8-8.2c0.6-1.4,1.4-2.8,2.4-4   c1.5-1.9,3.2-2.2,5.4-1.2c1.2,0.5,2.4,1.2,3.4,2.1c6.5,5,12.4,10.6,17.5,17.1C179.9,188,180.7,188.6,180.6,190.1z"/>
	<path d="M130.7,205.7c-1.3-1.4-1.5-3.1-1.8-4.7c-0.5-3.8-0.8-7.6-1.3-11.3c-0.2-1.5-0.4-3.1-0.9-4.6c-1-2.9-3.2-3.9-6.1-3.1   c-0.9,0.2-1.7,0.6-2.5,0.9C106,188.4,93.3,192,80.2,194c-6.5,1-13.1,1.2-19.8,0.8c-10.3-0.7-19-3.7-25.9-11.5   c-4.1-4.6-6.2-10.1-6.6-16.1c-0.2-2.7,0.4-5.3,1.3-7.9c2.8-7.7,7.4-14,13.9-18.9c3.9-2.9,8.2-5.5,13.1-5.3c2.1,0,4-0.1,4.9,0.1   c0.4,0.7,0.3,1.1-0.2,1.3c-1.1,0.5-2.3,0.9-3.4,1.5c-6.9,3.4-12.8,9.1-17.5,15.3c-1.7,2.2-3.1,4.6-4.1,7.3   c-2.9,7.8-1.3,14.9,4.8,20.5c4.6,4.2,10.1,5.6,16.2,6.6c6.8,1.2,13.6,0.7,20.4-0.4c11.7-1.9,22.8-5.6,33.6-10.1   c3.1-1.3,6.1-2.7,9.3-3.9c2.3-0.8,4.7-1.4,7.1-2c0.6-0.2,1.3-0.2,2-0.2c2.6,0.2,4.1,1.4,4.7,4c0.2,0.8,0.2,1.6,0.2,2.3   c0.2,8.4-0.3,16.8-2.2,25C131.9,203.5,131.8,204.8,130.7,205.7z"/>
</g>
</svg>