<svg xmlns="http://www.w3.org/2000/svg" viewBox="0 0 274.82 64.71"><defs><style>.cls-1{fill:#1d1c4b;}</style></defs><g id="Layer_2" data-name="Layer 2"><g id="Layer_1-2" data-name="Layer 1"><path id="arm2" class="cls-1" d="M14.31,29.36a27.92,27.92,0,0,0,5.91,1.18c3.37.34,5.06.51,2.86-5.4S18.53,10,21.9,4.89s8.44-3.38,11.82,1.69l.33.5a18.27,18.27,0,0,1,1,2c.33.84.67,3,.84-.85S31.18.67,28.65.16,23.08.16,20.22,4s-2.54,12.66.33,21.1l.34.84q1,2.54-2.36,2.53a15.44,15.44,0,0,0-4.22.34q-.84.16,0,.51"/><path id="arm2-2" data-name="arm2" class="cls-1" d="M23.29,17.44a27.73,27.73,0,0,0,2.77,5.35c1.84,2.85,2.76,4.27,6-1.12s9-13,15.09-13.56,7.9,4.49,6.05,10.28L53,19a15.93,15.93,0,0,1-1,2.06c-.45.79-2,2.42,1.19.13s3-8.43,1.8-10.72-3.47-4.36-8.3-4.18S35.29,12.18,30.49,19.69l-.45.79q-1.35,2.37-3.45-.27a15.37,15.37,0,0,0-2.9-3.09c-.44-.37-.57-.26-.4.32"/><path id="arm2-3" data-name="arm2" class="cls-1" d="M38.24,17a27.64,27.64,0,0,0-2.47,5.49c-1.08,3.22-1.62,4.82,4.63,4s15.82-1.05,20,3.37,1.41,9-4.28,11.14l-.57.22a16.58,16.58,0,0,1-2.2.53c-.9.14-3.11,0,.63,1s8.46-2.91,9.52-5.26,1.24-5.43-1.9-9.09S49.83,23.15,41,24.07l-.9.14q-2.69.42-1.94-2.87a15.27,15.27,0,0,0,.62-4.19c0-.57-.15-.61-.5-.11"/><path id="arm2-4" data-name="arm2" class="cls-1" d="M47.85,28.46A27.33,27.33,0,0,0,42,30c-3.19,1.16-4.78,1.74-.24,6.11S52.47,47.77,51.62,53.8s-6.14,6.7-11.37,3.6l-.53-.31a17.26,17.26,0,0,1-1.79-1.38c-.67-.62-1.92-2.45-.39,1.12s7.55,4.8,10.05,4.15,5-2.41,5.92-7.15S50.3,41.33,44.06,35l-.67-.62q-2-1.85,1-3.3a14.9,14.9,0,0,0,3.65-2.14c.46-.34.39-.49-.22-.45"/><path id="arm2-5" data-name="arm2" class="cls-1" d="M44.93,43.09a27.51,27.51,0,0,0-4.81-3.62c-2.9-1.77-4.34-2.65-4.93,3.62s-2.48,15.66-7.72,18.76-9.06-.62-9.91-6.64l-.08-.61a16.13,16.13,0,0,1,0-2.26c.06-.91.71-3-1.12.39s1,8.9,3,10.45,5,2.42,9.29.16S36.4,53,37.47,44.19l.06-.91c.13-1.81,1.2-2.23,3.23-1.26a15.1,15.1,0,0,0,4,1.53c.55.14.63,0,.22-.46"/><path id="arm2-6" data-name="arm2" class="cls-1" d="M31.66,49.94a27.62,27.62,0,0,0-.16-6c-.43-3.37-.64-5.05-5.91-1.59S11.8,50.16,6.11,48s-5.17-7.47-1-11.89l.42-.45a18.3,18.3,0,0,1,1.75-1.44c.75-.51,2.81-1.33-1-.63S-.07,39.89,0,42.47s1.24,5.43,5.67,7.36,12.9-.36,20.49-5l.74-.51q2.25-1.56,3,1.73a15,15,0,0,0,1.27,4c.23.52.4.49.49-.11"/><path id="arm2-7" data-name="arm2" class="cls-1" d="M18,43.82a27.53,27.53,0,0,0,4.61-3.88c2.37-2.43,3.55-3.64-2.43-5.61S5.48,28.41,3.63,22.62s2.63-8.7,8.69-8.18l.61.05a18,18,0,0,1,2.21.47c.87.26,2.8,1.37-.13-1.19s-8.88-1-10.86.62-3.47,4.35-2.23,9,8.31,9.87,16.7,12.89l.87.27c1.74.52,1.9,1.66.5,3.42a15.65,15.65,0,0,0-2.37,3.51c-.26.51-.13.62.4.32"/></g><g id="Layer_2-2" data-name="Layer 2"><path class="cls-1" d="M182.27,12.69l-4.17,1.18,0,.45a1.26,1.26,0,0,0,.09.51,4.48,4.48,0,0,0,1-.18,4.39,4.39,0,0,1,1.43-.13c.69.15,1.43.83,1.43,1.34s-.93,5.9-2.86,16.55c-2.26,12.42-3.08,17.18-3,17.26a19.32,19.32,0,0,0,3.74-.39c.05-.06.38-1.47.71-3.14s.82-3.66,1.06-4.44A70,70,0,0,1,187,31.38c1.85-2.59,3.63-3.94,4.79-3.65s1,1.06-.56,9.75c-.63,3.56-1.19,7.19-1.26,8.09-.08,1.54-.06,1.67.32,2.21a2.23,2.23,0,0,0,1.06.82c1.31.44,2.88-.38,4.67-2.44a22.69,22.69,0,0,0,2.74-4c0-.11-.18-.29-.4-.39s-.42-.11-1,.77A11.28,11.28,0,0,1,195,45.34a.73.73,0,0,1-1-.33c-.05-.18.51-3.56,1.23-7.55,1.49-8.19,1.65-9.6,1.26-10.94a2.86,2.86,0,0,0-3.53-2.14c-2.92.62-5.6,3.55-9.24,10.12a26,26,0,0,1-1.34,2.29s.16-1.19.42-2.58S184,27.32,185,22s1.78-9.85,1.83-10.11,0-.44-.13-.42S184.56,12,182.27,12.69Z"/><path class="cls-1" d="M209,12.39a5.79,5.79,0,0,0-2.73,2.26,4,4,0,0,0,.75,4.14,5.73,5.73,0,0,0,2.65,1.13l.74.11-.84.93a27.86,27.86,0,0,0-6.21,12.33,20.23,20.23,0,0,0-.36,5.17c0,3.37,0,3.58.46,5,1,3.39,2.7,5.16,5.74,6.09.85.26,1.47.29,4.89.24,4.35-.05,5.23.08,6,.9a2.9,2.9,0,0,1,.79,2.31A4.28,4.28,0,0,1,219,56.62a6.09,6.09,0,0,1-3.89,0c-2.55-.71-3.56-.26-3.56,1.55a2,2,0,0,0,1.45,1.9,12,12,0,0,0,2.47.11,5.7,5.7,0,0,0,3-.57,7,7,0,0,0,3.28-3.37,9.48,9.48,0,0,0,.95-4.53c0-3.2-1.11-5.44-3.22-6.41-.79-.36-1-.37-4.91-.37-3.4,0-4.23-.05-5-.28a5.3,5.3,0,0,1-3.81-4,10.89,10.89,0,0,1-.36-3.85,21.57,21.57,0,0,1,1-7.19,25.7,25.7,0,0,1,4.94-8.52c.91-1,1-1.1,2-1.29,4.66-.92,8.14-3.27,8.14-5.51,0-.87-.36-1.1-1.53-1-1.56.13-4.62,2-7.28,4.35-1.31,1.16-1.83,1.27-3.09.67-2.16-1-1.9-3.84.47-5.07l.64-.33-.24-.47c-.15-.28-.31-.49-.38-.49S209.53,12.17,209,12.39Z"/><path class="cls-1" d="M70.76,32.31c0,10.94,0,19.88.13,19.88l5.61.43c3,.24,5.62.39,5.77.34s.26-.39.26-1.81V49.43l-.93-.26c-2.65-.74-4.46-1.74-5.2-2.83-1-1.49-1-1.19-1-13.82-.05-10.53,0-12.18.33-11.43,0,.07,2.43,2.41,5.36,5.19s6.16,5.87,7.19,6.86,2.59,2.51,3.47,3.32L93.29,38H95l2.14-1.85c1.16-1,5.09-4.38,8.68-7.52s6.63-5.68,6.67-5.68.07,4.47,0,9.93l0,9.94-.37,1a7.4,7.4,0,0,1-3,3.2c-.52.3-1.73.85-2.69,1.25l-1.75.7,0,1.73,0,1.74h10.64V13.77h-1.55l-5.15,4.38c-10.09,8.55-15.6,13.2-15.89,13.41s-.38.16-.84-.3C91.51,31,87,26.64,81.73,21.63c-9.39-8.94-9.55-9.09-10.25-9.14l-.72-.05Z"/><path class="cls-1" d="M266.54,22.78a12,12,0,0,0-6.73,3.33,12.89,12.89,0,0,0-2.9,5.4,26.47,26.47,0,0,0-.26,7c.77,4.9,3.48,8.11,7.87,9.27,2,.52,6.78.29,9.69-.46l.61-.16V41.56h-1.95l-.26.94c-.7,2.38-1.9,3.48-3.79,3.48-3.45,0-5.2-4.63-4.76-12.61.26-5,1.67-7.91,4.05-8.48,2-.48,3.5.49,4.34,2.83l.37,1,1,.05,1,0V26.21a16.4,16.4,0,0,0-.13-2.7,14.53,14.53,0,0,0-1.77-.39A23.79,23.79,0,0,0,266.54,22.78Zm-2.29,2.88c-1.7,2.24-2.51,5.34-2.51,9.67,0,4.58.78,7.44,2.76,10.06l.82,1.08-.56-.23a9.84,9.84,0,0,1-4.54-4.15c-1.05-2-1.33-3.34-1.35-6.41a11.49,11.49,0,0,1,.38-4,11.08,11.08,0,0,1,4.12-6.14C264.71,24.67,265,24.69,264.25,25.66Z"/><path class="cls-1" d="M129.21,23.89A8.84,8.84,0,0,0,125,26.44a12.16,12.16,0,0,0-3.55,6.79,17,17,0,0,0-.24,4.66c.1,3.56.39,5.1,1.37,7.09,2,4.09,6.39,5.58,10.25,3.48a14.54,14.54,0,0,0,4.88-5.67,2.34,2.34,0,0,1,.45-.74,8.31,8.31,0,0,1,.48,1.84,7.85,7.85,0,0,0,2,4.51c1.69,1.55,4.27,1.26,7-.79a3.69,3.69,0,0,0,.93-.88,7,7,0,0,0-.9-1.54,6,6,0,0,0-.9.54,2.5,2.5,0,0,1-1.64.58,1.47,1.47,0,0,1-1.29-.49c-.86-.89-1.52-3.27-2.07-7.66L141.51,36l.86-2.1c1-2.53,2.46-5.56,3.39-7.27a4.31,4.31,0,0,0,.7-1.92v-.65h-4.23l-.35,1.18c-1.48,5.13-1.45,5-1.73,5a.21.21,0,0,1-.23-.18,12.88,12.88,0,0,0-.75-1.73c-1.67-3.4-3.89-4.81-7.52-4.78A10.41,10.41,0,0,0,129.21,23.89Zm4.63,2.24a4.54,4.54,0,0,1,2.26,2.6,22.19,22.19,0,0,1,1.65,7.83,18,18,0,0,1-.61,2.47c-1.09,3.42-2.7,5.82-4.44,6.69a5.11,5.11,0,0,1-3.62.19c-1.89-.78-3-3.48-3.17-7.94-.25-6.07,1.28-10.52,4.12-11.92A4.81,4.81,0,0,1,133.84,26.13Z"/><path class="cls-1" d="M155.29,24.3a7,7,0,0,0-3.17,1.58,16.44,16.44,0,0,0-2.71,3.31,2.85,2.85,0,0,0,.78.81l.77.61.7-.8c1.41-1.64,2.73-2.14,5.59-2.14h1.64V36.2c0,9.32,0,9.6.93,11.07,1.19,1.93,4.5,2.68,7.33,1.67,1.12-.39,3.51-1.8,3.51-2.06a7.08,7.08,0,0,0-.9-1.52,5.75,5.75,0,0,0-1,.54,4,4,0,0,1-2.84.7A2.54,2.54,0,0,1,163.76,45l-.37-.77,0-8.3-.05-8.29h10v-3.6l-8.54,0A90.93,90.93,0,0,0,155.29,24.3Z"/><path class="cls-1" d="M237.77,24.25c-4.42.51-7.28,1.86-9.31,4.4a12.4,12.4,0,0,0-2.7,7.24c-.72,7.16,2.91,12.46,9.16,13.38A16.65,16.65,0,0,0,240.4,49a11.36,11.36,0,0,0,6.39-4.46c1.73-2.6,2.27-7.28,1.23-10.66a11.2,11.2,0,0,0-4.24-5.56c-.37-.23-.68-.46-.68-.54s2.09-.11,4.66-.11h4.66v-3.6l-6.74,0C242,24.1,238.4,24.17,237.77,24.25Zm2.58,4.2c2.83,3,4,8.47,3,13.36-.54,2.52-2,4.46-3.84,5.1a9,9,0,0,1-4.91-.06c-1.72-.79-3.12-2.91-3.66-5.51a17,17,0,0,1-.2-4.09c.07-2.5.12-2.93.53-4.09,1.21-3.52,3.76-5.33,7.71-5.48C239.55,27.67,239.69,27.75,240.35,28.45Z"/></g></g></svg>