<svg width="25" height="25" viewBox="0 0 25 25" fill="none" xmlns="http://www.w3.org/2000/svg">
<g clip-path="url(#clip0)">
<path d="M5.9375 10.9375C6.5625 11.1458 7.29167 11.2916 8.125 11.375C8.125 11.375 10 11.5625 9.1875 9.37496C8.375 7.18746 7.5 3.74996 8.75 1.87496C10 -3.83779e-05 11.875 0.624962 13.125 2.49996L13.25 2.68746C13.4167 2.97913 13.5417 3.22913 13.625 3.43746C13.625 3.43746 13.875 4.56246 13.9375 3.12496C14 1.68746 12.1875 0.312462 11.25 0.124962C10.3125 -0.0625384 9.1875 0.124962 8.125 1.56246C7.0625 2.99996 7.1875 6.24996 8.25 9.37496L8.375 9.68746C8.625 10.3125 8.33333 10.625 7.5 10.625C6.66667 10.625 6.14583 10.6666 5.9375 10.75C5.72917 10.7916 5.72917 10.8541 5.9375 10.9375Z" fill="white"/>
<path d="M9.26516 6.52311C9.49227 7.14154 9.83321 7.80238 10.288 8.50563C10.288 8.50563 11.3112 10.088 12.5139 8.08824C13.7166 6.08852 15.8572 3.2601 18.1024 3.06723C20.3476 2.87436 21.0289 4.72963 20.3434 6.87631L20.2748 7.09097C20.1509 7.40319 20.0335 7.65685 19.9226 7.85195C19.9226 7.85195 19.1994 8.7492 20.3618 7.90122C21.5243 7.05323 21.4681 4.77889 21.0297 3.92924C20.5914 3.07959 19.743 2.31736 17.9567 2.38382C16.1703 2.45028 13.7084 4.57558 11.929 7.35557L11.7628 7.64822C11.4303 8.23352 11.0041 8.20054 10.4842 7.54927C9.9643 6.89801 9.6068 6.51696 9.41169 6.40613C9.24916 6.26931 9.20031 6.3083 9.26516 6.52311Z" fill="white"/>
<path d="M14.8012 6.37432C14.4586 6.93703 14.1537 7.61524 13.8864 8.40894C13.8864 8.40894 13.2851 10.1948 15.5987 9.89112C17.9124 9.58749 21.4585 9.50199 23.0071 11.139C24.5557 12.7761 23.5279 14.4642 21.4212 15.2641L21.2105 15.3441C20.889 15.4414 20.6174 15.5075 20.3957 15.5422C20.3957 15.5422 19.2433 15.5347 20.6306 15.9166C22.0178 16.2984 23.7627 14.8386 24.1548 13.9666C24.5469 13.0947 24.6153 11.9562 23.4513 10.5996C22.2872 9.24297 19.0914 8.63926 15.808 8.97728L15.4755 9.02936C14.8105 9.13352 14.571 8.77945 14.757 7.96715C14.9431 7.15485 15.0187 6.63786 14.984 6.41618C14.9899 6.2038 14.929 6.18985 14.8012 6.37432Z" fill="white"/>
<path d="M18.3613 10.6035C17.7078 10.6868 16.9875 10.8716 16.2005 11.1579C16.2005 11.1579 14.4296 11.802 16.1104 13.4208C17.7912 15.0396 20.0703 17.7576 19.7571 19.9891C19.4438 22.2207 17.4833 22.4707 15.5438 21.3232L15.3499 21.2085C15.0732 21.018 14.8522 20.8469 14.6867 20.6953C14.6867 20.6953 13.9736 19.79 14.5407 21.1124C15.1077 22.4348 17.3372 22.8878 18.2633 22.6502C19.1893 22.4126 20.1218 21.7558 20.4558 19.9997C20.7898 18.2436 19.2677 15.3693 16.9552 13.0142L16.707 12.7869C16.2107 12.3321 16.338 11.924 17.0889 11.5627C17.8398 11.2013 18.291 10.9379 18.4426 10.7724C18.6123 10.6445 18.5852 10.5882 18.3613 10.6035Z" fill="white"/>
<path d="M17.2771 16.0242C16.8043 15.5655 16.2105 15.1179 15.4958 14.6814C15.4958 14.6814 13.8876 13.6993 13.6711 16.0228C13.4545 18.3462 12.7523 21.8231 10.8128 22.9706C8.87337 24.118 7.45488 22.7417 7.14165 20.5101L7.11033 20.287C7.08663 19.9519 7.08241 19.6724 7.09767 19.4486C7.09767 19.4486 7.36026 18.3264 6.68056 19.5946C6.00086 20.8628 7.03778 22.8878 7.80123 23.4633C8.56468 24.0388 9.6597 24.3577 11.2405 23.5232C12.8213 22.6887 14.118 19.706 14.5158 16.4293L14.5387 16.0935C14.5845 15.4219 14.9828 15.2668 15.7337 15.6282C16.4846 15.9896 16.972 16.1779 17.1958 16.1932C17.4016 16.246 17.4287 16.1897 17.2771 16.0242Z" fill="white"/>
<path d="M12.3644 18.5588C12.4279 17.9031 12.4073 17.1598 12.3025 16.3289C12.3025 16.3289 12.0666 14.4593 10.1157 15.7397C8.16483 17.0201 5.00944 18.6404 2.9027 17.8405C0.79596 17.0407 0.986591 15.0735 2.5352 13.4364L2.69007 13.2727C2.93716 13.0451 3.15295 12.8675 3.33742 12.7397C3.33742 12.7397 4.37821 12.2449 2.96304 12.5049C1.54787 12.7649 0.612213 14.8386 0.638742 15.7943C0.665271 16.75 1.0992 17.8048 2.73762 18.5195C4.37604 19.2343 7.5161 18.3869 10.325 16.6535L10.6017 16.4619C11.1551 16.0787 11.5249 16.2932 11.7109 17.1055C11.897 17.9178 12.0538 18.4162 12.1816 18.6007C12.2687 18.7945 12.3296 18.7805 12.3644 18.5588Z" fill="white"/>
<path d="M7.31139 16.2922C7.86413 15.9337 8.43301 15.4548 9.01804 14.8556C9.01804 14.8556 10.3343 13.5072 8.11787 12.7774C5.90139 12.0477 2.66902 10.5869 1.98352 8.44026C1.29802 6.29359 2.95624 5.21816 5.20144 5.41103L5.42596 5.43032C5.75789 5.48203 6.03125 5.54031 6.24606 5.60516C6.24606 5.60516 7.28124 6.11165 6.1968 5.16597C5.11235 4.2203 2.90698 4.77897 2.17556 5.39467C1.44414 6.01037 0.888808 7.00656 1.34937 8.73375C1.80994 10.4609 4.42786 12.3909 7.53298 13.5101L7.85519 13.6074C8.49961 13.8019 8.56187 14.2248 8.04197 14.8761C7.52207 15.5274 7.2297 15.9604 7.16485 16.1752C7.06744 16.364 7.11629 16.403 7.31139 16.2922Z" fill="white"/>
</g>
<defs>
<clipPath id="clip0">
<rect width="25" height="25" fill="white"/>
</clipPath>
</defs>
</svg>
