<svg width="51" height="51" viewBox="0 0 51 51" fill="none" xmlns="http://www.w3.org/2000/svg">
<path d="M51 25.5C51 11.4152 39.5848 0 25.5 0C11.4152 0 0 11.4152 0 25.5C0 38.2301 9.32344 48.7787 21.5156 50.6912V32.8711H15.041V25.5H21.5156V19.882C21.5156 13.4921 25.3207 9.96094 31.1479 9.96094C33.9369 9.96094 36.8555 10.459 36.8555 10.459V16.7344H33.6381C30.4705 16.7344 29.4844 18.7017 29.4844 20.7188V25.5H36.5566L35.4261 32.8711H29.4844V50.6912C41.6766 48.7787 51 38.2301 51 25.5Z" fill="#1877F2"/>
<path d="M35.4261 32.8711L36.5566 25.5H29.4844V20.7188C29.4844 18.7017 30.4705 16.7344 33.6381 16.7344H36.8555V10.459C36.8555 10.459 33.9369 9.96094 31.1479 9.96094C25.3207 9.96094 21.5156 13.4921 21.5156 19.882V25.5H15.041V32.8711H21.5156V50.6912C22.8155 50.8954 24.1453 51 25.5 51C26.8547 51 28.1845 50.8954 29.4844 50.6912V32.8711H35.4261Z" fill="white"/>
</svg>
