<svg width="15" height="15" viewBox="0 0 15 15" fill="none" xmlns="http://www.w3.org/2000/svg">
<g clip-path="url(#clip0_58:831)">
<path d="M8.825 1.01661C8.43035 0.761022 7.97019 0.625031 7.5 0.625031C7.02981 0.625031 6.56965 0.761022 6.175 1.01661L0 4.99974L2.5 6.61224V12.7585L2.68313 12.9416C2.74188 12.9997 4.15437 14.3747 7.5 14.3747C10.8456 14.3747 12.2581 12.9997 12.3169 12.9416L12.5 12.7585V6.61224L13.75 5.80599V12.4997H15V4.99974L8.825 1.01661ZM11.25 12.1972C10.1205 12.8736 8.81454 13.1966 7.5 13.1247C6.18553 13.1968 4.87956 12.874 3.75 12.1979V7.41849L6.175 8.98099C6.56943 9.23718 7.02967 9.37353 7.5 9.37353C7.97033 9.37353 8.43057 9.23718 8.825 8.98099L11.25 7.41849V12.1972ZM8.1475 7.93224C7.95481 8.05758 7.72987 8.1243 7.5 8.1243C7.27013 8.1243 7.04519 8.05758 6.8525 7.93224L2.30625 4.99974L6.8525 2.06724C7.04519 1.9419 7.27013 1.87518 7.5 1.87518C7.72987 1.87518 7.95481 1.9419 8.1475 2.06724L12.6937 4.99974L8.1475 7.93224Z" fill="#86BBD8"/>
</g>
<defs>
<clipPath id="clip0_58:831">
<rect width="15" height="15" fill="white"/>
</clipPath>
</defs>
</svg>
