<svg width="15" height="15" viewBox="0 0 15 15" fill="none" xmlns="http://www.w3.org/2000/svg">
<path d="M2.5 8.125H4.375V9.375H2.5V8.125ZM5.625 9.375H7.5V8.125H5.625V9.375ZM2.5 11.875H4.375V10.625H2.5V11.875ZM5.625 11.875H7.5V10.625H5.625V11.875ZM2.5 4.375H4.375V3.125H2.5V4.375ZM5.625 4.375H7.5V3.125H5.625V4.375ZM2.5 6.875H4.375V5.625H2.5V6.875ZM5.625 6.875H7.5V5.625H5.625V6.875ZM15 5V15H0V1.875C0 1.37772 0.197544 0.900805 0.549175 0.549175C0.900805 0.197544 1.37772 0 1.875 0L8.125 0C8.62228 0 9.09919 0.197544 9.45083 0.549175C9.80246 0.900805 10 1.37772 10 1.875V3.125H13.125C13.6223 3.125 14.0992 3.32254 14.4508 3.67417C14.8025 4.02581 15 4.50272 15 5ZM8.75 1.875C8.75 1.70924 8.68415 1.55027 8.56694 1.43306C8.44973 1.31585 8.29076 1.25 8.125 1.25H1.875C1.70924 1.25 1.55027 1.31585 1.43306 1.43306C1.31585 1.55027 1.25 1.70924 1.25 1.875V13.75H8.75V1.875ZM13.75 5C13.75 4.83424 13.6842 4.67527 13.5669 4.55806C13.4497 4.44085 13.2908 4.375 13.125 4.375H10V13.75H13.75V5ZM11.25 9.375H12.5V8.125H11.25V9.375ZM11.25 11.875H12.5V10.625H11.25V11.875ZM11.25 6.875H12.5V5.625H11.25V6.875Z" fill="#86BBD8"/>
</svg>
