<svg width="17" height="21" viewBox="0 0 17 21" fill="none" xmlns="http://www.w3.org/2000/svg">
<path d="M15.9979 3.99744H12.4989C12.4989 1.02549 10.3106 0 8.49999 0C6.50055 0 4.50233 1.02549 4.50233 3.99744H1.00235C-0.0973455 3.99744 0.0023627 3.81298 0.0023627 4.99745V19.9207C0.0023627 21.1051 -0.0976098 20.9975 1.00208 20.9975H15.9979C17.0976 20.9975 16.9976 21.1051 16.9976 19.9207L16.9976 5.38396C16.9976 4.19949 17.0976 3.99744 15.9979 3.99744ZM8.49999 1.07679C10.1595 1.07679 11.4992 2.20996 11.4992 3.99744H5.50082C5.50082 2.20996 6.84045 1.07679 8.49999 1.07679ZM15.9979 19.9207H1.00208L1.00235 4.99745H16.0023L15.9979 19.9207ZM8.50232 9.49744C6.84278 9.49744 5.50082 8.28491 5.50082 6.49744H4.50232C4.50232 9.46938 7.00041 10.4974 8.49999 10.4974C10.1165 10.4974 12.4989 9.18942 12.4989 6.49744H11.5023C11.5023 8.28491 10.1619 9.49744 8.50232 9.49744Z" fill="#001A37"/>
</svg>
