<svg width="35" height="35" viewBox="0 0 35 35" fill="none" xmlns="http://www.w3.org/2000/svg">
<circle cx="17.5" cy="17.5" r="17.5" fill="white"/>
<path d="M35 17.5C35 7.83234 27.1611 0 17.5 0C7.83234 0 0 7.83234 0 17.5C0 26.2325 6.39734 33.4731 14.7656 34.7845V22.5597H10.3217V17.5011H14.7656V13.6434C14.7656 9.25859 17.3742 6.83703 21.373 6.83703C23.2881 6.83703 25.293 7.17828 25.293 7.17828V11.4844H23.0825C20.9125 11.4844 20.2344 12.8352 20.2344 14.2188V17.5H25.0873L24.3075 22.5586H20.2344V34.7834C28.5961 33.472 35 26.2314 35 17.4989V17.5Z" fill="#1877F2"/>
</svg>
