<svg width="35" height="35" viewBox="0 0 35 35" fill="none" xmlns="http://www.w3.org/2000/svg">
<path fill-rule="evenodd" clip-rule="evenodd" d="M34.9903 16.9094L34.9914 18.057C34.7035 27.2681 27.2974 34.685 18.0907 34.9903L16.9433 34.9914C7.73218 34.7035 0.315204 27.2975 0.00987911 18.0907L0.00878906 16.9433C0.296682 7.73216 7.70272 0.315204 16.9095 0.00987911L18.0569 0.00878906C27.268 0.296682 34.685 7.70268 34.9903 16.9094Z" fill="url(#paint0_radial)"/>
<path fill-rule="evenodd" clip-rule="evenodd" d="M34.9903 16.9094L34.9914 18.057C34.7035 27.2681 27.2974 34.685 18.0907 34.9903L16.9433 34.9914C7.73218 34.7035 0.315204 27.2975 0.00987911 18.0907L0.00878906 16.9433C0.296682 7.73216 7.70272 0.315204 16.9095 0.00987911L18.0569 0.00878906C27.268 0.296682 34.685 7.70268 34.9903 16.9094Z" fill="url(#paint1_radial)"/>
<g clip-path="url(#clip0)">
<path d="M17.4997 7.5C14.7816 7.5 14.4429 7.51313 13.3791 7.55813C12.311 7.61062 11.5885 7.77625 10.951 8.02375C10.2838 8.27564 9.67952 8.67001 9.18035 9.17938C8.66957 9.67737 8.27497 10.282 8.02473 10.95C7.77723 11.5875 7.6116 12.31 7.5591 13.3781C7.51098 14.4425 7.50098 14.7806 7.50098 17.4987C7.50098 20.2169 7.5141 20.5556 7.5591 21.6194C7.6116 22.6844 7.77723 23.41 8.02473 24.0475C8.27661 24.7147 8.67099 25.319 9.18035 25.8181C9.67835 26.3289 10.2829 26.7235 10.951 26.9738C11.5885 27.2181 12.3141 27.3869 13.3791 27.4394C14.4435 27.4875 14.7816 27.4975 17.4997 27.4975C20.2179 27.4975 20.5566 27.4844 21.6204 27.4394C22.6854 27.3869 23.411 27.2175 24.0485 26.9738C24.7157 26.7219 25.3199 26.3275 25.8191 25.8181C26.3305 25.3207 26.7252 24.7159 26.9747 24.0475C27.2191 23.41 27.3879 22.6844 27.4404 21.6194C27.4885 20.555 27.4985 20.2169 27.4985 17.4987C27.4985 14.7806 27.4854 14.4419 27.4404 13.3781C27.3879 12.3131 27.2185 11.5838 26.9747 10.95C26.7228 10.2828 26.3285 9.67854 25.8191 9.17938C25.3216 8.66793 24.7169 8.27324 24.0485 8.02375C23.411 7.77625 22.6854 7.61062 21.6204 7.55813C20.556 7.51 20.2179 7.5 17.4997 7.5ZM17.4997 9.3C20.1691 9.3 20.4879 9.31313 21.5429 9.35812C22.516 9.40375 23.046 9.56625 23.3979 9.70375C23.8329 9.86433 24.2266 10.1199 24.5504 10.4519C24.8818 10.7743 25.1364 11.1671 25.2954 11.6012C25.4328 11.9531 25.5954 12.4831 25.641 13.4562C25.686 14.5113 25.6991 14.8306 25.6991 17.4994C25.6991 20.1681 25.686 20.4875 25.6372 21.5425C25.5847 22.5156 25.4222 23.0456 25.2854 23.3975C25.096 23.8669 24.8847 24.195 24.536 24.55C24.2111 24.8799 23.8177 25.1342 23.3835 25.295C23.036 25.4325 22.4985 25.595 21.5216 25.6406C20.461 25.6856 20.1485 25.6987 17.4722 25.6987C14.796 25.6987 14.4841 25.6856 13.4222 25.6369C12.4491 25.5844 11.9122 25.4219 11.5604 25.285C11.0854 25.0956 10.7597 24.8844 10.411 24.5356C10.0591 24.1838 9.83535 23.8487 9.66285 23.3831C9.52285 23.0356 9.36285 22.4981 9.31098 21.5212C9.27535 20.4731 9.25848 20.1481 9.25848 17.4844C9.25848 14.8219 9.27535 14.4963 9.31098 13.435C9.36285 12.4581 9.52285 11.9219 9.66285 11.5731C9.83535 11.0975 10.0597 10.7725 10.411 10.4206C10.7591 10.0725 11.0854 9.8475 11.5604 9.67125C11.9122 9.53437 12.436 9.37188 13.4129 9.32313C14.4735 9.285 14.786 9.27125 17.4585 9.27125L17.4997 9.3ZM17.4997 12.3669C16.8256 12.3666 16.158 12.4992 15.5351 12.7571C14.9122 13.015 14.3462 13.3931 13.8695 13.8698C13.3928 14.3465 13.0147 14.9125 12.7568 15.5353C12.499 16.1582 12.3664 16.8258 12.3666 17.5C12.3664 18.1742 12.499 18.8418 12.7568 19.4647C13.0147 20.0875 13.3928 20.6535 13.8695 21.1302C14.3462 21.6069 14.9122 21.985 15.5351 22.2429C16.158 22.5008 16.8256 22.6334 17.4997 22.6331C18.1739 22.6334 18.8415 22.5008 19.4644 22.2429C20.0873 21.985 20.6532 21.6069 21.1299 21.1302C21.6066 20.6535 21.9847 20.0875 22.2426 19.4647C22.5005 18.8418 22.6331 18.1742 22.6329 17.5C22.6331 16.8258 22.5005 16.1582 22.2426 15.5353C21.9847 14.9125 21.6066 14.3465 21.1299 13.8698C20.6532 13.3931 20.0873 13.015 19.4644 12.7571C18.8415 12.4992 18.1739 12.3666 17.4997 12.3669ZM17.4997 20.8331C15.6572 20.8331 14.1666 19.3425 14.1666 17.5C14.1666 15.6575 15.6572 14.1669 17.4997 14.1669C19.3422 14.1669 20.8329 15.6575 20.8329 17.5C20.8329 19.3425 19.3422 20.8331 17.4997 20.8331ZM24.0397 12.1619C24.0394 12.4804 23.9126 12.7858 23.6873 13.0109C23.4619 13.236 23.1564 13.3625 22.8379 13.3625C22.6803 13.3625 22.5244 13.3315 22.3789 13.2712C22.2334 13.2109 22.1011 13.1226 21.9898 13.0112C21.8784 12.8998 21.79 12.7676 21.7298 12.6221C21.6695 12.4766 21.6385 12.3206 21.6385 12.1631C21.6385 12.0056 21.6695 11.8497 21.7298 11.7041C21.79 11.5586 21.8784 11.4264 21.9898 11.315C22.1011 11.2037 22.2334 11.1153 22.3789 11.055C22.5244 10.9948 22.6803 10.9637 22.8379 10.9637C23.4985 10.9637 24.0397 11.5013 24.0397 12.1619Z" fill="white"/>
</g>
<defs>
<radialGradient id="paint0_radial" cx="0" cy="0" r="1" gradientUnits="userSpaceOnUse" gradientTransform="translate(13.0112 35.0253) scale(43.6288)">
<stop stop-color="#FFDD55"/>
<stop offset="0.328" stop-color="#FF543F"/>
<stop offset="0.348" stop-color="#FC5245"/>
<stop offset="0.504" stop-color="#E64771"/>
<stop offset="0.643" stop-color="#D53E91"/>
<stop offset="0.761" stop-color="#CC39A4"/>
<stop offset="0.841" stop-color="#C837AB"/>
</radialGradient>
<radialGradient id="paint1_radial" cx="0" cy="0" r="1" gradientUnits="userSpaceOnUse" gradientTransform="translate(5.63203 -0.436973) scale(28.9696 19.3024)">
<stop stop-color="#4168C9"/>
<stop offset="0.999" stop-color="#4168C9" stop-opacity="0"/>
</radialGradient>
<clipPath id="clip0">
<rect width="20" height="20" fill="white" transform="translate(7.5 7.5)"/>
</clipPath>
</defs>
</svg>
