<svg width="35" height="35" viewBox="0 0 35 35" fill="none" xmlns="http://www.w3.org/2000/svg">
<circle cx="17.5" cy="17.5" r="17.5" fill="#0077B5"/>
<path d="M13.5257 24.75H10.2604V14.2346H13.5257V24.75ZM11.8911 12.8003C10.8471 12.8003 10 11.9351 10 10.8911C10 10.3896 10.1992 9.90855 10.5539 9.5539C10.9086 9.19924 11.3896 9 11.8911 9C12.3927 9 12.8737 9.19924 13.2284 9.5539C13.583 9.90855 13.7822 10.3896 13.7822 10.8911C13.7822 11.9351 12.9351 12.8003 11.8911 12.8003ZM25.7466 24.75H22.4886V19.6312C22.4886 18.4112 22.4639 16.8469 20.791 16.8469C19.0934 16.8469 18.8329 18.1721 18.8329 19.5435V24.75H15.571V14.2346H18.7024V15.669H18.748C19.1839 14.8427 20.2488 13.9708 21.8373 13.9708C25.1419 13.9708 25.7494 16.1471 25.7494 18.9737V24.75H25.7466Z" fill="white"/>
</svg>
