<svg width="51" height="51" viewBox="0 0 51 51" fill="none" xmlns="http://www.w3.org/2000/svg">
<path fill-rule="evenodd" clip-rule="evenodd" d="M0 25.5C0 11.4167 11.4167 0 25.5 0C39.5833 0 51 11.4167 51 25.5C51 39.5833 39.5833 51 25.5 51C11.4167 51 0 39.5833 0 25.5Z" fill="#0077B5"/>
<path d="M18.4011 15.7491C18.3636 14.0467 17.1462 12.75 15.1692 12.75C13.1923 12.75 11.8999 14.0467 11.8999 15.7491C11.8999 17.4163 13.1541 18.7503 15.0942 18.7503H15.1312C17.1462 18.7503 18.4011 17.4163 18.4011 15.7491Z" fill="white"/>
<path d="M18.0205 21.1203H12.2416V38.4834H18.0205V21.1203Z" fill="white"/>
<path d="M32.2076 20.7125C36.0104 20.7125 38.8613 23.1947 38.8613 28.5279L38.861 38.4833H33.0824V29.1941C33.0824 26.8608 32.2462 25.2686 30.1542 25.2686C28.5577 25.2686 27.6067 26.342 27.1891 27.3787C27.0363 27.7502 26.9988 28.2679 26.9988 28.7868V38.4838H21.2192C21.2192 38.4838 21.2954 22.75 21.2192 21.1207H26.9988V23.58C27.7658 22.3978 29.1394 20.7125 32.2076 20.7125Z" fill="white"/>
</svg>
