<svg width="51" height="51" viewBox="0 0 51 51" fill="none" xmlns="http://www.w3.org/2000/svg">
<path fill-rule="evenodd" clip-rule="evenodd" d="M0 25.5C0 11.4167 11.4167 0 25.5 0C39.5833 0 51 11.4167 51 25.5C51 39.5833 39.5833 51 25.5 51C11.4167 51 0 39.5833 0 25.5Z" fill="#FF0000"/>
<path fill-rule="evenodd" clip-rule="evenodd" d="M36.1266 16.7337C37.297 17.0548 38.2187 18.0011 38.5315 19.2028C39.0999 21.3808 39.0999 25.925 39.0999 25.925C39.0999 25.925 39.0999 30.4691 38.5315 32.6472C38.2187 33.8489 37.297 34.7952 36.1266 35.1165C34.0056 35.7 25.4999 35.7 25.4999 35.7C25.4999 35.7 16.9942 35.7 14.873 35.1165C13.7027 34.7952 12.781 33.8489 12.4682 32.6472C11.8999 30.4691 11.8999 25.925 11.8999 25.925C11.8999 25.925 11.8999 21.3808 12.4682 19.2028C12.781 18.0011 13.7027 17.0548 14.873 16.7337C16.9942 16.15 25.4999 16.15 25.4999 16.15C25.4999 16.15 34.0056 16.15 36.1266 16.7337ZM22.9499 22.0999V30.5999L29.7499 26.3501L22.9499 22.0999Z" fill="white"/>
</svg>
