<svg _ngcontent-c1="" class="logo" viewBox="0 0 67.79 62.1" xmlns="http://www.w3.org/2000/svg"><path _ngcontent-c1="" d="M7.09,65.1a4.42,4.42,0,0,0,1.42-.18c.15-.06.16-.08.21-.23a8.5,8.5,0,0,0,.18-1c0-.07,0-.12-.06-.12s-.06,0-.08.12a1.5,1.5,0,0,1-.29.66,1.82,1.82,0,0,1-1.38.4,2.86,2.86,0,0,1-2.85-2.9A2.62,2.62,0,0,1,5,59.78a2.38,2.38,0,0,1,1.82-.58,2.63,2.63,0,0,1,1.58.45,1.13,1.13,0,0,1,.33.81c0,.11,0,.16.06.16s.07,0,.08-.16,0-.56,0-.82,0-.38,0-.44,0-.08-.1-.09A6.5,6.5,0,0,1,8,59a6,6,0,0,0-1.15-.1,3.17,3.17,0,0,0-2.41.85,3.12,3.12,0,0,0-.89,2.16,3,3,0,0,0,1,2.34,3.66,3.66,0,0,0,2.61.85Zm7-3.11a3,3,0,0,0,3.07,3.11,3.1,3.1,0,0,0,3.16-3.23,2.88,2.88,0,0,0-3.11-3A3.06,3.06,0,0,0,14.1,62Zm.75-.22c0-1.73,1-2.6,2.31-2.6s2.41,1,2.41,2.92c0,2.3-1.47,2.71-2.19,2.71-1.42,0-2.53-1.19-2.53-3Zm17-2.66c0-.15,0-.21-.1-.21s-.09.05-.12.13l-2.32,5-2.42-5c0-.09-.07-.12-.12-.12s-.08.05-.09.14l-.57,5.16c0,.3-.05.61-.31.66l-.24,0s-.08,0-.08,0,.06.07.13.07l.67,0L27,65c.1,0,.15,0,.15-.07s0,0-.07,0a1.73,1.73,0,0,1-.3,0,.25.25,0,0,1-.2-.25c0-.13,0-.27,0-.4l.31-3.67h0c.09.21,1,2.11,1.05,2.25l.92,1.84c.15.29.19.36.25.36s.09-.07.26-.42l1.94-4.11h0l.38,4.08c0,.15,0,.28,0,.29s-.06,0-.06,0,0,.07.22.08,1.15,0,1.33,0,.16,0,.16-.07,0,0-.06,0a1.77,1.77,0,0,1-.52-.07c-.34-.11-.39-.55-.42-.84l-.53-4.86Zm7.24,3.59c0,.76,0,1.38,0,1.71s-.08.41-.23.44l-.24,0s-.06,0-.06.05,0,.06.12.06l.76,0,1,0c.09,0,.13,0,.13-.06s0-.05-.06-.05l-.36,0c-.24,0-.28-.21-.3-.44s0-.95,0-1.71V59.45c0-.08,0-.14.06-.16a1,1,0,0,1,.34,0,1.39,1.39,0,0,1,1.08.39,1.68,1.68,0,0,1,.44,1.22,1.31,1.31,0,0,1-1.36,1.29c-.17,0-.22,0-.22.07s.05.06.09.06h.17a1.83,1.83,0,0,0,1.94-1.88,1.35,1.35,0,0,0-.4-.94A1.89,1.89,0,0,0,40.38,59l-1,0-.9,0q-.12,0-.12.06s0,0,.06,0l.27,0c.26.06.32.19.34.45s0,.48,0,1.71v1.4Zm8.35,1.42c-.14.4-.3.7-.66.74l-.24,0s-.07,0-.07.05,0,.06.15.06l.9,0,.62,0c.07,0,.12,0,.12-.06s0-.05-.08-.05h-.08c-.14,0-.3-.07-.3-.23a1.73,1.73,0,0,1,.11-.53l.47-1.4s0-.06.08-.06h1.7s.06,0,.07,0l.74,2c0,.13,0,.2,0,.21a.06.06,0,0,0-.05.06s.08,0,.23,0c.55,0,1.13,0,1.24,0s.16,0,.16-.06,0-.05-.07-.05a1,1,0,0,1-.32,0c-.17,0-.4-.17-.68-.88-.48-1.2-1.73-4.47-1.85-4.77s-.12-.28-.17-.28-.08.05-.17.31l-1.8,4.91Zm1.11-1.75s0,0,0,0l.7-2.14q.06-.18.12,0l.75,2.14s0,0,0,0Zm10,2.73a2.06,2.06,0,0,0,1.19-.33,1.63,1.63,0,0,0,.67-1.31c0-.64-.22-1.13-1.15-1.86L59,61.42c-.76-.59-1-.88-1-1.33a.9.9,0,0,1,1-.91c.73,0,1,.33,1,.41a1.49,1.49,0,0,1,.11.4c0,.06,0,.1.06.1s0-.05,0-.18a8,8,0,0,1,0-.84s0,0-.08,0l-.28,0a3,3,0,0,0-.74-.08,1.45,1.45,0,0,0-1.63,1.42c0,.54.19,1,1,1.72l.35.29c.68.56.91.88.91,1.43a1.06,1.06,0,0,1-1.13,1.05A1.07,1.07,0,0,1,57.52,64a1.62,1.62,0,0,1,0-.29c0-.07,0-.09-.06-.09s-.06,0-.06.13,0,.44,0,.84c0,.21,0,.24.12.3a2.34,2.34,0,0,0,1.06.21Zm8.79,0a2.07,2.07,0,0,0,1.2-.33,1.66,1.66,0,0,0,.67-1.31c0-.64-.22-1.13-1.15-1.86l-.23-.18c-.76-.59-1-.88-1-1.33a.9.9,0,0,1,1-.91c.73,0,.94.33,1,.41a1.18,1.18,0,0,1,.1.4c0,.06,0,.1.07.1s0-.05,0-.18c0-.54,0-.8,0-.84s0,0-.07,0a1.38,1.38,0,0,1-.28,0A3,3,0,0,0,68,58.9a1.45,1.45,0,0,0-1.63,1.42c0,.54.19,1,1,1.72l.35.29c.68.56.91.88.91,1.43a1.06,1.06,0,0,1-1.13,1.05A1.07,1.07,0,0,1,66.32,64a1.09,1.09,0,0,1,0-.29c0-.07,0-.09-.05-.09s-.06,0-.06.13,0,.44,0,.84c0,.21,0,.24.11.3A2.39,2.39,0,0,0,67.31,65.1Z" id="LOGO.svg" transform="translate(-2.38 -3)"></path><path _ngcontent-c1="" class="cls-1" d="M4.49,54.49c-.27.76-.57,1.33-1.27,1.42l-.44,0c-.07,0-.4,0-.4.09s.36.13.55.13c.72,0,1.55,0,1.71,0s.82,0,1.18,0c.14,0,.23,0,.23-.13s0-.09-.15-.09H5.75c-.26,0-.58-.14-.58-.44a3.37,3.37,0,0,1,.21-1l.91-2.67a.16.16,0,0,1,.15-.12H9.69c.08,0,.11,0,.13.09l1.41,3.71c.09.24,0,.38-.09.41S11,56,11,56s.17.1.46.11c1,0,2.14,0,2.37,0s.3,0,.3-.13-.06-.09-.15-.09a2.08,2.08,0,0,1-.6-.09c-.32-.1-.76-.33-1.3-1.68-.93-2.29-3.3-8.53-3.52-9.1s-.25-.55-.34-.55-.15.09-.33.59L4.49,54.49Zm2.12-3.34c-.05,0-.07,0-.05-.1L7.89,47c.08-.23.15-.23.23,0l1.43,4.08c0,.05,0,.1-.06.1ZM15,52V50.15c0-2,0-2.35,0-2.76s-.11-.65-.54-.71l-.46,0a.13.13,0,0,1-.1-.11c0-.07.06-.1.21-.1.6,0,1.4,0,1.52,0l1.35,0c.15,0,.22,0,.22.1a.13.13,0,0,1-.11.11,1.6,1.6,0,0,0-.34,0c-.34.06-.42.29-.45.71s0,.77,0,2.76V52c0,1.86.41,2.63,1,3.15a2.59,2.59,0,0,0,2,.69,2.69,2.69,0,0,0,2.05-.91A4.73,4.73,0,0,0,22,51.77V50.15c0-2,0-2.35,0-2.76s-.09-.65-.53-.71l-.45,0a.12.12,0,0,1-.11-.11c0-.07.06-.1.21-.1.59,0,1.36,0,1.44,0s.72,0,1.12,0c.15,0,.21,0,.21.1a.12.12,0,0,1-.11.11,1.57,1.57,0,0,0-.33,0c-.36.07-.44.29-.47.71s0,.77,0,2.76v1.38c0,1.39-.18,2.95-1.24,3.85a4,4,0,0,1-2.78.94,4.15,4.15,0,0,1-2.77-.91A4.13,4.13,0,0,1,15,52Zm14.64-5,1.66,0c1.27,0,1.56.31,1.6.71l0,.13c0,.19,0,.23.11.23s.12-.06.12-.17,0-1.07,0-1.46c0-.08,0-.15-.06-.15l-.38.06a6.59,6.59,0,0,1-1,.06h-5c-.16,0-.67,0-1.05-.06a6.06,6.06,0,0,1-.59-.15s-.1.16-.13.24-.29,1.25-.29,1.39a.1.1,0,0,0,.09.1c.06,0,.11,0,.14-.12a1.71,1.71,0,0,1,.21-.4c.19-.31.51-.4,1.34-.41l1.92,0v5.39c0,1.24,0,2.25-.06,2.78,0,.38-.12.64-.39.7a2.63,2.63,0,0,1-.39.06c-.08,0-.11,0-.11.09s.06.11.21.11c.39,0,1.31,0,1.38,0s.92,0,1.64,0c.15,0,.21,0,.21-.11s0-.11-.1-.11a5.2,5.2,0,0,1-.61-.06c-.4-.06-.47-.3-.51-.68-.06-.53-.06-1.54-.06-2.78V47Zm5.64,5a3.65,3.65,0,0,0,3.92,4.28A4,4,0,0,0,42,55.38c1.06-.9,1.24-2.46,1.24-3.85V50.15c0-2,0-2.35,0-2.76s.1-.64.47-.71a1.52,1.52,0,0,1,.33,0,.11.11,0,0,0,.1-.11c0-.07-.06-.1-.21-.1-.39,0-1,0-1.12,0s-.84,0-1.43,0c-.15,0-.21,0-.21.1a.11.11,0,0,0,.1.11l.46,0c.43.06.51.3.52.71s0,.77,0,2.76v1.62a4.73,4.73,0,0,1-.76,3.11,2.72,2.72,0,0,1-2.05.91,2.6,2.6,0,0,1-2-.69c-.57-.52-1-1.29-1-3.15v-1.8c0-2,0-2.35,0-2.76s.1-.65.45-.71a1.52,1.52,0,0,1,.33,0,.13.13,0,0,0,.12-.11c0-.07-.07-.1-.22-.1l-1.35,0c-.12,0-.92,0-1.53,0-.15,0-.21,0-.21.1a.13.13,0,0,0,.11.11l.45,0c.44.06.51.3.55.71s0,.77,0,2.76V52Zm20.56-5.43c0-.25-.11-.35-.2-.35s-.15.09-.21.21l-3.87,8-4-8a.29.29,0,0,0-.27-.19c-.08,0-.13.09-.15.22l-1,8.39c-.06.48-.07,1-.51,1-.2,0-.29,0-.39,0s-.14.05-.14.09.09.13.23.13c.36,0,1,0,1.11,0s.74,0,1.24,0c.16,0,.25,0,.25-.13s-.06-.09-.11-.09a2.67,2.67,0,0,1-.51-.07A.37.37,0,0,1,47,55.5c0-.21,0-.45,0-.65l.52-5.8h.06c.23.53,1.3,2.69,1.69,3.51s1.21,2.34,1.56,3c.26.47.33.6.45.6s.2-.13.47-.69L55,48.89h0l.64,6.49c0,.24,0,.44-.06.46a.1.1,0,0,0-.09.1c0,.06.06.11.37.14.49.05,2,.08,2.27.08s.27,0,.27-.13,0-.09-.1-.09a2.86,2.86,0,0,1-.87-.12c-.54-.18-.63-.88-.67-1.33l-.91-7.88Zm5.32,1.73c.4.45,1.9,2,3.44,3.64s3.32,3.36,3.46,3.48c.74.68.88.79,1,.79s.11-.08.11-.93l0-7.52c0-.77,0-1,.47-1.12a1.48,1.48,0,0,1,.32,0,.15.15,0,0,0,.15-.12c0-.08-.11-.09-.24-.09-.55,0-1,0-1.14,0s-.79,0-1.39,0c-.15,0-.26,0-.26.09a.11.11,0,0,0,.11.12,5,5,0,0,1,.65.06c.41.08.49.36.5,1.19l.13,6.44c-.4-.42-1.82-2-3.14-3.31-2.05-2.11-4-4.17-4.2-4.38s-.36-.39-.51-.39-.18.13-.18.65v7.35c0,1.17,0,1.52-.38,1.61a2.64,2.64,0,0,1-.55.07.11.11,0,0,0-.1.11c0,.09.07.11.21.11.61,0,1.16,0,1.29,0s.64,0,1.4,0c.15,0,.24,0,.24-.11a.1.1,0,0,0-.11-.11,4,4,0,0,1-.66-.07c-.36-.09-.48-.41-.51-1.47Z" transform="translate(-2.38 -3)"></path><path _ngcontent-c1="" class="cls-2" d="M53.85,30.77A19.34,19.34,0,0,1,18.63,28.5,18.53,18.53,0,1,0,44,4.05,19,19,0,0,0,41.6,3,19.36,19.36,0,0,1,53.85,30.77Z" transform="translate(-2.38 -3)"></path><path _ngcontent-c1="" class="cls-2" d="M22.26,31.44A17,17,0,0,1,34.92,3,16.34,16.34,0,1,0,47.39,31.45,18.87,18.87,0,0,0,49,29.81a17.07,17.07,0,0,1-26.72,1.63Z" transform="translate(-2.38 -3)"></path><path _ngcontent-c1="" class="cls-2" d="M22.79,24.08c-.6-8.42,3.08-13.52,9.43-16.21,7.38-2.39,14.9,1.93,16.14,9.51,1,6.16-1.94,11.83-6.07,13.83-3.81,1.84-5.55,1.08-5.56-1.94V27.39c1,.25,1.81.78,2.37.65.39-.1.49-.17.33-.36s-.87-1,0-1a22.69,22.69,0,0,0,4.09-1.06,3.29,3.29,0,0,0,.65-.17c.64-.49-2-.92-2.39-1.37a.62.62,0,0,1-.15-.58c.33-.78,2.62-1.1,2.88-1.7.14-.28-.1-.3-.36-.4s-.69-.31-.53-.67c.25-.6.64-.56.93-1.24l-.28-.14c-.24-.11.33-1.18.61-1.81.17-.39,0-.43-.29-.31-.49.17-1.35.65-2,.82s-.75,0-.77-.45c0-.64-.47-.5-.72,0s-1.73,2.08-2,2c-.7-.33,2.12-3.89,1.2-4.32-.29-.14-.78,1.24-1.52.89s.4-2.63,0-2.8-.74.78-1.29.52c-1.38-.66-.91-3.67-1.32-3.87a.35.35,0,0,0-.39,0c-.42.2,0,3.21-1.32,3.87-.56.26-1.08-.62-1.3-.52s.76,2.46,0,2.8-1.23-1-1.53-.89c-.91.43,1.91,4,1.2,4.32-.26,0-1.75-1.55-2-2s-.7-.67-.73,0c0,.43-.26.59-.77.45s-1.46-.65-2-.82c-.32-.12-.47-.08-.29.31.28.63.85,1.7.6,1.81l-.28.14c.3.68.68.64.94,1.24.15.36-.22.55-.53.67s-.5.12-.36.4c.25.6,2.54.92,2.87,1.7a.64.64,0,0,1-.14.58c-.38.45-3,.88-2.4,1.37a3.76,3.76,0,0,0,.65.17,23.13,23.13,0,0,0,4.09,1.06c.83,0,.16.81,0,1s-.07.26.32.36c.58.13,1.46-.43,2.44-.67l.42-10.31L36,15.92c0,4.48-.14,8.93-.14,13.4,0,3.64,2.64,5.34,7.27,3a14.5,14.5,0,1,0-20.35-8.21Z" transform="translate(-2.38 -3)"></path></svg>
