<svg width="35" height="35" viewBox="0 0 35 35" fill="none" xmlns="http://www.w3.org/2000/svg">
<circle cx="17.5" cy="17.5" r="17.5" fill="#586AEA"/>
<g clip-path="url(#clip0)">
<path d="M24.4307 11.1416C23.1341 10.5464 21.7658 10.1221 20.3599 9.87907C20.3471 9.87657 20.3338 9.87821 20.322 9.88375C20.3101 9.88929 20.3004 9.89845 20.2941 9.9099C20.1191 10.2224 19.9241 10.6299 19.7874 10.9516C18.2719 10.7214 16.7304 10.7214 15.2149 10.9516C15.0628 10.5952 14.8912 10.2474 14.7007 9.9099C14.6942 9.89871 14.6844 9.88977 14.6726 9.88426C14.6609 9.87876 14.6477 9.87695 14.6349 9.87907C13.229 10.1216 11.8605 10.5459 10.5641 11.1416C10.5531 11.1462 10.5438 11.154 10.5374 11.1641C7.94408 15.0382 7.23325 18.8166 7.58241 22.5474C7.58326 22.5567 7.58599 22.5656 7.59043 22.5738C7.59487 22.582 7.60093 22.5892 7.60825 22.5949C9.11791 23.7134 10.8067 24.5672 12.6024 25.1199C12.6151 25.1236 12.6285 25.1233 12.641 25.1191C12.6535 25.115 12.6645 25.1071 12.6724 25.0966C13.0574 24.5716 13.4007 24.0174 13.6941 23.4349C13.6982 23.4269 13.7005 23.4182 13.701 23.4093C13.7015 23.4003 13.7001 23.3914 13.6968 23.3831C13.6936 23.3747 13.6887 23.3671 13.6823 23.3609C13.6759 23.3546 13.6683 23.3497 13.6599 23.3466C13.1211 23.1404 12.5995 22.8918 12.0999 22.6032C12.0908 22.5979 12.083 22.5905 12.0775 22.5815C12.0719 22.5725 12.0686 22.5622 12.068 22.5517C12.0673 22.5411 12.0693 22.5306 12.0737 22.521C12.0781 22.5113 12.0848 22.503 12.0932 22.4966C12.1984 22.4179 12.3018 22.3367 12.4032 22.2532C12.4121 22.246 12.4228 22.2414 12.4341 22.24C12.4455 22.2385 12.457 22.2402 12.4674 22.2449C15.7407 23.7391 19.2841 23.7391 22.5191 22.2449C22.5296 22.24 22.5413 22.2382 22.5528 22.2397C22.5643 22.2412 22.5751 22.2459 22.5841 22.2532C22.6841 22.3349 22.7891 22.4182 22.8949 22.4966C22.9032 22.5029 22.9099 22.5111 22.9143 22.5205C22.9188 22.53 22.9208 22.5404 22.9203 22.5508C22.9198 22.5612 22.9168 22.5714 22.9115 22.5804C22.9062 22.5894 22.8988 22.5969 22.8899 22.6024C22.3915 22.8937 21.8694 23.1424 21.3291 23.3457C21.3207 23.349 21.313 23.3539 21.3067 23.3603C21.3003 23.3666 21.2953 23.3743 21.2921 23.3827C21.2889 23.3911 21.2875 23.4001 21.288 23.4091C21.2884 23.4181 21.2908 23.4269 21.2949 23.4349C21.5949 24.0166 21.9382 24.5699 22.3157 25.0957C22.3235 25.1064 22.3344 25.1145 22.347 25.1186C22.3596 25.1228 22.3731 25.123 22.3857 25.1191C24.1845 24.5681 25.876 23.7142 27.3874 22.5941C27.3948 22.5889 27.4009 22.5822 27.4055 22.5744C27.4101 22.5667 27.413 22.558 27.4141 22.5491C27.8307 18.2349 26.7157 14.4874 24.4566 11.1657C24.4513 11.1545 24.4421 11.1456 24.4307 11.1407V11.1416ZM14.1832 20.2749C13.1974 20.2749 12.3857 19.3707 12.3857 18.2591C12.3857 17.1482 13.1824 16.2432 14.1832 16.2432C15.1916 16.2432 15.9966 17.1566 15.9807 18.2599C15.9807 19.3707 15.1841 20.2749 14.1832 20.2749ZM20.8291 20.2749C19.8432 20.2749 19.0316 19.3707 19.0316 18.2591C19.0316 17.1482 19.8274 16.2432 20.8291 16.2432C21.8374 16.2432 22.6424 17.1566 22.6266 18.2599C22.6266 19.3707 21.8382 20.2749 20.8291 20.2749Z" fill="white"/>
</g>
<defs>
<clipPath id="clip0">
<rect width="20" height="20" fill="white" transform="translate(7.5 7.5)"/>
</clipPath>
</defs>
</svg>
