<svg width="35" height="35" viewBox="0 0 35 35" fill="none" xmlns="http://www.w3.org/2000/svg">
<circle cx="17.5" cy="17.5" r="17.5" fill="#FF0000"/>
<g clip-path="url(#clip0)">
<path d="M27.0799 12.6697C26.9637 12.2545 26.7424 11.8764 26.4372 11.5718C26.132 11.2673 25.7534 11.0468 25.338 10.9315C23.7786 10.5147 17.5099 10.5147 17.5099 10.5147C17.5099 10.5147 11.253 10.5047 9.67737 10.9315C9.26262 11.0473 8.88474 11.2681 8.58026 11.5726C8.27578 11.877 8.05499 12.2549 7.93924 12.6697C7.64312 14.2661 7.49727 15.8867 7.50362 17.5103C7.50073 19.1261 7.64655 20.7387 7.93924 22.3278C8.05537 22.7428 8.27622 23.1209 8.58059 23.426C8.88497 23.731 9.26264 23.9526 9.67737 24.0697C11.2367 24.4865 17.5099 24.4865 17.5099 24.4865C17.5099 24.4865 23.763 24.4865 25.338 24.0697C25.7534 23.9532 26.1318 23.7317 26.4369 23.4267C26.7419 23.1216 26.9634 22.7432 27.0799 22.3278C27.3667 20.7397 27.5067 19.1247 27.4967 17.5103C27.5067 15.8853 27.3699 14.2678 27.0799 12.6697ZM15.5074 20.5022V14.5053L20.7255 17.5103L15.5074 20.5022Z" fill="white"/>
</g>
<defs>
<clipPath id="clip0">
<rect width="20" height="20" fill="white" transform="translate(7.5 7.5)"/>
</clipPath>
</defs>
</svg>
